<svg xmlns="http://www.w3.org/2000/svg" version="1.1" id="Layer_1" x="0px" y="0px" width="215px" height="25px" viewBox="0 0 208 24" enable-background="new 0 0 208 24" xml:space="preserve" class="header" preserveAspectRatio="xMidYMid meet"><metadata id="metadata3073"/><defs id="defs3071"/><style type="text/css">.text {fill: #e32726; } .invert .text {fill: #FFF; }</style><g id="art" transform="translate(-3,-0.325)" class="text"><g id="g3010"><g id="g3012"><g id="g3014"><g id="g3016"><g id="g3018"><path id="path3020" d="m 23.206,23.404 c -0.628,0 -1.167,-0.359 -1.526,-1.077 l -2.155,-4.76 H 8.119 L 5.964,22.416 C 5.695,23.045 5.156,23.494 4.438,23.494 3.628,23.494 3,22.865 3,22.058 3,21.788 3.09,21.519 3.18,21.249 l 8.8,-19.307 c 0.359,-0.898 0.988,-1.258 1.886,-1.258 h 0.09 c 0.808,0 1.527,0.449 1.796,1.258 l 8.801,19.217 c 0.089,0.27 0.18,0.539 0.18,0.719 -0.001,0.897 -0.63,1.526 -1.527,1.526 z m -13.83,-8.8 h 8.891 l -4.49,-9.968 -4.401,9.968 z"/></g><g id="g3022"><path id="path3024" d="m 28.684,23.404 c -0.898,0 -1.527,-0.719 -1.527,-1.526 V 7.958 c 0,-0.808 0.719,-1.526 1.527,-1.526 0.898,0 1.526,0.718 1.526,1.526 v 13.92 c 0,0.897 -0.628,1.526 -1.526,1.526 z m 0,-19.487 c -0.988,0 -1.707,-0.718 -1.707,-1.616 V 1.942 c 0,-0.898 0.718,-1.617 1.707,-1.617 0.987,0 1.796,0.718 1.796,1.617 v 0.359 c -0.001,0.898 -0.809,1.616 -1.796,1.616 z"/></g><g id="g3026"><path id="path3028" d="m 35.239,23.404 c -0.898,0 -1.526,-0.719 -1.526,-1.526 V 7.958 c 0,-0.808 0.718,-1.526 1.526,-1.526 0.898,0 1.527,0.718 1.527,1.526 v 1.707 c 1.257,-1.977 3.233,-3.323 5.208,-3.323 0.898,0 1.527,0.629 1.527,1.526 0,0.809 -0.539,1.438 -1.347,1.527 -3.323,0.358 -5.388,3.053 -5.388,7.004 v 5.479 c 0,0.897 -0.719,1.526 -1.527,1.526 z"/></g><g id="g3030"><path id="path3032" d="m 61.101,23.404 c -0.628,0 -1.167,-0.359 -1.526,-1.077 L 57.42,17.567 H 45.925 l -2.155,4.849 c -0.27,0.629 -0.809,1.078 -1.527,1.078 -0.808,0 -1.437,-0.629 -1.437,-1.437 0,-0.27 0.09,-0.539 0.18,-0.809 l 8.89,-19.307 c 0.36,-0.898 0.988,-1.258 1.886,-1.258 h 0.09 c 0.808,0 1.526,0.449 1.796,1.258 l 8.8,19.217 c 0.09,0.27 0.18,0.539 0.18,0.719 0,0.898 -0.718,1.527 -1.527,1.527 z m -13.918,-8.8 h 8.891 l -4.49,-9.968 -4.401,9.968 z"/></g><g id="g3034"><path id="path3036" d="m 69.902,23.584 c -2.154,0 -4.58,-0.809 -6.376,-2.065 -0.27,-0.18 -0.538,-0.629 -0.538,-1.168 0,-0.719 0.629,-1.347 1.347,-1.347 0.27,0 0.629,0.089 0.809,0.269 1.616,1.078 3.232,1.617 4.85,1.617 1.796,0 2.963,-0.897 2.963,-2.245 0,-1.437 -1.616,-1.976 -3.771,-2.515 -2.335,-0.628 -5.567,-1.616 -5.567,-4.849 0,-2.964 2.425,-5.029 5.747,-5.029 1.706,0 3.592,0.538 5.298,1.436 0.449,0.27 0.809,0.809 0.809,1.258 0,0.719 -0.629,1.347 -1.348,1.347 -0.269,0 -0.538,-0.09 -0.718,-0.18 -1.347,-0.808 -2.784,-1.167 -4.041,-1.167 -1.616,0 -2.784,0.808 -2.784,1.976 0,1.347 1.886,1.886 3.861,2.514 2.245,0.629 5.478,1.617 5.478,4.939 -0.003,3.144 -2.426,5.209 -6.019,5.209 z"/></g><g id="g3038"><path id="path3040" d="m 80.139,23.404 c -0.897,0 -1.526,-0.719 -1.526,-1.526 V 7.958 c 0,-0.808 0.719,-1.526 1.526,-1.526 0.898,0 1.527,0.718 1.527,1.526 v 13.92 c 0.001,0.897 -0.718,1.526 -1.527,1.526 z M 80.05,3.917 c -0.988,0 -1.707,-0.718 -1.707,-1.616 V 1.942 c 0,-0.898 0.719,-1.617 1.707,-1.617 0.987,0 1.796,0.718 1.796,1.617 v 0.359 c 0,0.898 -0.719,1.616 -1.796,1.616 z"/></g><g id="g3042"><path id="path3044" d="m 90.377,23.584 c -3.144,0 -6.287,-1.796 -6.287,-5.299 0,-3.502 2.784,-5.567 7.185,-5.567 1.976,0 3.412,0.269 4.58,0.538 v -0.089 c 0,-3.323 -2.425,-4.041 -4.399,-4.041 -1.438,0 -2.694,0.27 -4.042,0.897 -0.18,0.09 -0.359,0.09 -0.539,0.09 -0.718,0 -1.347,-0.629 -1.347,-1.347 0,-0.629 0.449,-1.167 0.898,-1.347 1.796,-0.808 3.412,-1.078 5.388,-1.078 2.335,0 4.221,0.629 5.389,1.886 1.167,1.168 1.705,2.784 1.705,4.939 v 8.8 c 0,0.898 -0.628,1.527 -1.526,1.527 -0.809,0 -1.526,-0.629 -1.526,-1.437 v -0.539 c -1.169,0.989 -2.875,2.067 -5.479,2.067 z m 1.079,-8.441 c -2.694,0 -4.312,1.078 -4.312,2.963 0,2.065 1.887,2.874 3.683,2.874 2.873,0 5.028,-1.707 5.028,-4.041 v -1.257 c -1.526,-0.36 -2.964,-0.539 -4.399,-0.539 z"/></g><g id="g3046"><path id="path3048" d="m 113.275,23.674 c -6.824,0 -11.763,-4.85 -11.763,-11.495 0,-6.555 5.119,-11.584 11.673,-11.584 3.145,0 5.389,0.629 7.635,2.156 0.359,0.269 1.166,0.987 1.166,2.155 0,1.527 -1.166,2.694 -2.693,2.694 -0.809,0 -1.258,-0.27 -1.617,-0.539 -1.436,-0.987 -2.783,-1.437 -4.578,-1.437 -3.234,0 -5.928,2.874 -5.928,6.375 0,3.861 2.604,6.646 6.198,6.646 1.615,0 3.053,-0.359 4.131,-1.168 v -2.604 h -2.875 c -1.348,0 -2.424,-1.078 -2.424,-2.425 0,-1.348 1.076,-2.425 2.424,-2.425 h 5.479 c 1.527,0 2.693,1.168 2.693,2.694 v 5.388 c 0,1.526 -0.629,2.604 -1.795,3.323 -2.337,1.437 -5.03,2.246 -7.726,2.246 z"/></g><g id="g3050"><path id="path3052" d="m 134.021,23.674 c -5.209,0 -9.25,-3.951 -9.25,-8.891 0,-5.118 4.131,-9.07 9.338,-9.07 5.211,0 9.25,3.952 9.25,8.891 0,5.119 -4.13,9.07 -9.338,9.07 z m 0,-13.291 c -2.336,0 -3.951,1.706 -3.951,4.221 0,2.515 1.705,4.311 4.039,4.311 2.336,0 3.953,-1.706 3.953,-4.221 0,-2.425 -1.796,-4.311 -4.041,-4.311 z"/></g><g id="g3054"><path id="path3056" d="m 157.998,23.674 c -4.67,0 -8.531,-3.862 -8.531,-8.621 0,-4.85 3.861,-8.8 8.531,-8.8 2.334,0 4.311,0.808 6.105,2.424 0.27,0.18 0.449,0.538 0.449,1.077 0,0.809 -0.627,1.527 -1.525,1.527 -0.359,0 -0.719,-0.09 -0.988,-0.359 -1.078,-0.987 -2.246,-1.886 -4.131,-1.886 -3.053,0 -5.389,2.604 -5.389,5.837 0,3.322 2.426,5.928 5.568,5.928 1.525,0 2.873,-0.63 4.221,-1.887 0.27,-0.27 0.539,-0.359 0.896,-0.359 0.721,0 1.438,0.629 1.438,1.438 0,0.358 -0.18,0.718 -0.449,0.987 -1.795,1.795 -3.771,2.694 -6.195,2.694 z"/></g><g id="g3058"><path id="path3060" d="m 174.342,23.674 c -4.85,0 -8.621,-3.772 -8.621,-8.621 0,-4.939 3.861,-8.8 8.711,-8.8 4.85,0 8.711,3.771 8.711,8.621 -0.092,4.938 -3.862,8.8 -8.801,8.8 z m 0,-14.638 c -3.145,0 -5.479,2.515 -5.479,5.837 0,3.322 2.426,5.928 5.568,5.928 3.142,0 5.569,-2.516 5.569,-5.838 0,-3.323 -2.516,-5.927 -5.658,-5.927 z"/></g><g id="g3062"><path id="path3064" d="m 209.096,23.404 c -0.898,0 -1.527,-0.719 -1.527,-1.526 v -8.263 c 0,-2.873 -1.348,-4.489 -3.771,-4.489 -2.426,0 -4.041,1.886 -4.041,4.579 v 8.173 c 0,0.897 -0.719,1.526 -1.527,1.526 -0.808,0 -1.525,-0.719 -1.525,-1.526 v -8.353 c 0,-2.783 -1.438,-4.399 -3.773,-4.399 -2.424,0 -4.131,1.975 -4.131,4.669 v 8.083 c 0,0.897 -0.629,1.526 -1.525,1.526 -0.898,0 -1.527,-0.719 -1.527,-1.526 V 7.958 c 0,-0.808 0.719,-1.526 1.527,-1.526 0.896,0 1.525,0.718 1.525,1.526 v 0.629 c 0.988,-1.257 2.426,-2.334 4.85,-2.334 2.246,0 4.041,0.988 5.209,2.874 1.436,-1.976 3.232,-2.874 5.568,-2.874 3.861,0 6.285,2.604 6.285,6.825 v 8.89 c -0.092,0.807 -0.721,1.436 -1.617,1.436 z"/></g></g></g><circle id="circle3066" cx="146.145" cy="21.159" r="1.976" d="m 148.121,21.159 c 0,1.091315 -0.88468,1.976 -1.976,1.976 -1.09131,0 -1.976,-0.884685 -1.976,-1.976 0,-1.091314 0.88469,-1.976 1.976,-1.976 1.09132,0 1.976,0.884686 1.976,1.976 z"/></g></g></g><g id="guides" transform="translate(-3,-0.325)"/></svg>